<svg width="227" height="24" viewBox="0 0 227 24" fill="none" xmlns="http://www.w3.org/2000/svg">
<path d="M56.0121 23.2188C56.0121 23.3407 55.9654 23.4474 55.8719 23.5388C55.7784 23.6303 55.6693 23.676 55.5446 23.676H54.4226C54.298 23.676 54.1889 23.6303 54.0954 23.5388C54.0019 23.4474 53.9552 23.3407 53.9552 23.2188V15.6972C53.9552 15.1181 53.9006 14.638 53.7915 14.2569C53.698 13.8607 53.5422 13.5482 53.324 13.3196C53.1215 13.091 52.8566 12.9309 52.5293 12.8395C52.2021 12.7328 51.8203 12.6795 51.384 12.6795C50.8853 12.6795 50.3711 12.7633 49.8412 12.9309C49.3114 13.0986 48.7738 13.312 48.2284 13.5711V23.2188C48.2284 23.3407 48.1817 23.4474 48.0882 23.5388C47.9947 23.6303 47.8856 23.676 47.7609 23.676H46.6156C46.4909 23.676 46.3818 23.6303 46.2883 23.5388C46.2104 23.4474 46.1714 23.3407 46.1714 23.2188V11.5592C46.1714 11.4373 46.2104 11.3306 46.2883 11.2392C46.3818 11.1477 46.4909 11.102 46.6156 11.102H47.7843C47.909 11.102 48.0102 11.1477 48.0882 11.2392C48.1817 11.3306 48.2284 11.4373 48.2284 11.5592V11.9936C48.8829 11.6431 49.4906 11.384 50.0516 11.2163C50.6126 11.0334 51.2437 10.942 51.9449 10.942C53.363 10.942 54.3915 11.3535 55.0304 12.1765C55.6849 12.9995 56.0121 14.1731 56.0121 15.6972V23.2188Z" fill="black"/>
<path d="M69.0934 17.5262C69.0934 17.8615 68.9454 18.0291 68.6493 18.0291H60.8189V18.3492C60.8189 19.7057 61.0916 20.6659 61.637 21.2298C62.1824 21.7937 62.9927 22.0757 64.0679 22.0757C64.7536 22.0757 65.4782 22.0528 66.2417 22.0071C67.0209 21.9614 67.6832 21.9004 68.2286 21.8242H68.3455C68.4389 21.8242 68.5247 21.8471 68.6026 21.8928C68.6805 21.9385 68.7194 22.0223 68.7194 22.1443V22.9216C68.7194 23.074 68.6883 23.1959 68.6259 23.2874C68.5636 23.3636 68.4389 23.4169 68.2519 23.4474C67.5819 23.5693 66.9118 23.6608 66.2417 23.7217C65.5873 23.7979 64.8626 23.836 64.0679 23.836C63.3978 23.836 62.7434 23.7522 62.1045 23.5846C61.4655 23.4017 60.8968 23.1045 60.3981 22.6929C59.915 22.2662 59.5177 21.7023 59.206 21.0012C58.9099 20.3001 58.7619 19.4161 58.7619 18.3492V16.2916C58.7619 14.6456 59.206 13.3425 60.0942 12.3823C60.9825 11.4221 62.2681 10.942 63.951 10.942C64.8081 10.942 65.5561 11.0715 66.195 11.3306C66.8339 11.5745 67.3637 11.9326 67.7845 12.4051C68.2208 12.8624 68.548 13.4263 68.7662 14.0969C68.9844 14.7523 69.0934 15.4839 69.0934 16.2916V17.5262ZM67.0131 16.2916C67.0131 14.9961 66.756 14.074 66.2417 13.5254C65.7431 12.9767 64.9795 12.7023 63.951 12.7023C62.9381 12.7023 62.159 12.9919 61.6136 13.5711C61.0838 14.1502 60.8189 15.0571 60.8189 16.2916V16.4974H67.0131V16.2916Z" fill="black"/>
<path d="M81.328 11.4906C81.328 11.5516 81.3202 11.605 81.3046 11.6507L78.149 22.5329C77.9932 23.0511 77.7283 23.4017 77.3543 23.5846C76.9803 23.7522 76.544 23.836 76.0453 23.836C75.5467 23.836 75.1104 23.7522 74.7364 23.5846C74.3624 23.4017 74.0975 23.0511 73.9416 22.5329L70.7861 11.6507C70.7705 11.605 70.7627 11.5516 70.7627 11.4906C70.7627 11.2315 70.8874 11.102 71.1367 11.102H72.4223C72.6249 11.102 72.7729 11.2468 72.8664 11.5364L75.5545 21.5041C75.6324 21.7785 75.7025 21.9614 75.7648 22.0528C75.8272 22.129 75.9207 22.1671 76.0453 22.1671C76.1544 22.1671 76.2401 22.129 76.3025 22.0528C76.3804 21.9614 76.4583 21.7785 76.5362 21.5041L79.2243 11.5364C79.3178 11.2468 79.4658 11.102 79.6684 11.102H80.954C81.2033 11.102 81.328 11.2315 81.328 11.4906Z" fill="black"/>
<path d="M93.2897 17.5262C93.2897 17.8615 93.1417 18.0291 92.8456 18.0291H85.0151V18.3492C85.0151 19.7057 85.2878 20.6659 85.8332 21.2298C86.3786 21.7937 87.189 22.0757 88.2642 22.0757C88.9498 22.0757 89.6744 22.0528 90.438 22.0071C91.2172 21.9614 91.8794 21.9004 92.4248 21.8242H92.5417C92.6352 21.8242 92.7209 21.8471 92.7988 21.8928C92.8767 21.9385 92.9157 22.0223 92.9157 22.1443V22.9216C92.9157 23.074 92.8845 23.1959 92.8222 23.2874C92.7599 23.3636 92.6352 23.4169 92.4482 23.4474C91.7781 23.5693 91.1081 23.6608 90.438 23.7217C89.7835 23.7979 89.0589 23.836 88.2642 23.836C87.5941 23.836 86.9396 23.7522 86.3007 23.5846C85.6618 23.4017 85.093 23.1045 84.5944 22.6929C84.1113 22.2662 83.7139 21.7023 83.4023 21.0012C83.1062 20.3001 82.9582 19.4161 82.9582 18.3492V16.2916C82.9582 14.6456 83.4023 13.3425 84.2905 12.3823C85.1787 11.4221 86.4643 10.942 88.1473 10.942C89.0044 10.942 89.7524 11.0715 90.3913 11.3306C91.0302 11.5745 91.56 11.9326 91.9807 12.4051C92.417 12.8624 92.7443 13.4263 92.9625 14.0969C93.1806 14.7523 93.2897 15.4839 93.2897 16.2916V17.5262ZM91.2094 16.2916C91.2094 14.9961 90.9522 14.074 90.438 13.5254C89.9393 12.9767 89.1758 12.7023 88.1473 12.7023C87.1344 12.7023 86.3553 12.9919 85.8099 13.5711C85.28 14.1502 85.0151 15.0571 85.0151 16.2916V16.4974H91.2094V16.2916Z" fill="black"/>
<path d="M101.867 12.2908C101.867 12.5499 101.703 12.6795 101.376 12.6795C100.831 12.6795 100.301 12.7557 99.7865 12.9081C99.2879 13.0453 98.7425 13.2891 98.1503 13.6397V23.2188C98.1503 23.3407 98.1036 23.4474 98.0101 23.5388C97.9166 23.6303 97.8075 23.676 97.6828 23.676H96.5375C96.4128 23.676 96.3037 23.6303 96.2102 23.5388C96.1323 23.4474 96.0934 23.3407 96.0934 23.2188V11.5592C96.0934 11.4373 96.1323 11.3306 96.2102 11.2392C96.3037 11.1477 96.4128 11.102 96.5375 11.102H97.6361C97.7607 11.102 97.862 11.1477 97.9399 11.2392C98.0334 11.3306 98.0802 11.4373 98.0802 11.5592V12.0393C98.6723 11.6431 99.2333 11.3611 99.7632 11.1934C100.309 11.0258 100.846 10.942 101.376 10.942C101.703 10.942 101.867 11.0791 101.867 11.3535V12.2908Z" fill="black"/>
<path d="M119.557 23.2188C119.557 23.3407 119.51 23.4474 119.416 23.5388C119.323 23.6303 119.214 23.676 119.089 23.676H117.967C117.842 23.676 117.733 23.6303 117.64 23.5388C117.546 23.4474 117.5 23.3407 117.5 23.2188V15.1257C117.5 14.6532 117.445 14.2569 117.336 13.9369C117.227 13.6168 117.079 13.3653 116.892 13.1824C116.705 12.9995 116.479 12.87 116.214 12.7938C115.949 12.7176 115.669 12.6795 115.373 12.6795C114.952 12.6795 114.5 12.7404 114.017 12.8624C113.549 12.9843 113.09 13.1291 112.638 13.2967C112.778 13.7997 112.848 14.3941 112.848 15.08V23.2188C112.848 23.3407 112.809 23.4474 112.731 23.5388C112.653 23.6303 112.552 23.676 112.427 23.676H111.189C111.064 23.676 110.963 23.6303 110.885 23.5388C110.822 23.4474 110.791 23.3407 110.791 23.2188V15.08C110.791 14.577 110.752 14.1731 110.674 13.8683C110.612 13.5482 110.503 13.3044 110.347 13.1367C110.191 12.9538 109.996 12.8319 109.763 12.7709C109.545 12.7099 109.287 12.6795 108.991 12.6795C108.571 12.6795 108.111 12.7709 107.612 12.9538C107.129 13.1215 106.638 13.3272 106.14 13.5711V23.2188C106.14 23.3407 106.101 23.4474 106.023 23.5388C105.945 23.6303 105.844 23.676 105.719 23.676H104.48C104.355 23.676 104.254 23.6303 104.176 23.5388C104.114 23.4474 104.083 23.3407 104.083 23.2188V11.5592C104.083 11.4373 104.122 11.3306 104.2 11.2392C104.293 11.1477 104.402 11.102 104.527 11.102H105.696C105.82 11.102 105.921 11.1477 105.999 11.2392C106.093 11.3306 106.14 11.4373 106.14 11.5592V11.9936C106.607 11.704 107.129 11.4525 107.706 11.2392C108.282 11.0258 108.898 10.9191 109.552 10.9191C110.051 10.9191 110.487 10.9953 110.861 11.1477C111.251 11.2849 111.594 11.5211 111.89 11.8564C112.544 11.5516 113.199 11.323 113.853 11.1706C114.523 11.0029 115.162 10.9191 115.77 10.9191C116.3 10.9191 116.791 10.9877 117.243 11.1249C117.71 11.262 118.115 11.4983 118.458 11.8336C118.801 12.1536 119.066 12.588 119.253 13.1367C119.455 13.6701 119.557 14.3331 119.557 15.1257V23.2188Z" fill="black"/>
<path d="M125.093 8.63292C125.093 8.75485 125.046 8.86154 124.953 8.95299C124.859 9.04443 124.75 9.09016 124.625 9.09016H123.433C123.309 9.09016 123.2 9.04443 123.106 8.95299C123.013 8.86154 122.966 8.75485 122.966 8.63292V6.80397C122.966 6.68204 123.013 6.57536 123.106 6.48391C123.2 6.39246 123.309 6.34674 123.433 6.34674H124.625C124.75 6.34674 124.859 6.39246 124.953 6.48391C125.046 6.57536 125.093 6.68204 125.093 6.80397V8.63292ZM125.046 23.2188C125.046 23.3407 124.999 23.4474 124.906 23.5388C124.812 23.6303 124.703 23.676 124.579 23.676H123.457C123.332 23.676 123.223 23.6303 123.129 23.5388C123.036 23.4474 122.989 23.3407 122.989 23.2188V11.5592C122.989 11.4373 123.036 11.3306 123.129 11.2392C123.223 11.1477 123.332 11.102 123.457 11.102H124.579C124.703 11.102 124.812 11.1477 124.906 11.2392C124.999 11.3306 125.046 11.4373 125.046 11.5592V23.2188Z" fill="black"/>
<path d="M138.348 23.2188C138.348 23.3407 138.301 23.4474 138.208 23.5388C138.114 23.6303 138.005 23.676 137.88 23.676H136.758C136.634 23.676 136.525 23.6303 136.431 23.5388C136.338 23.4474 136.291 23.3407 136.291 23.2188V15.6972C136.291 15.1181 136.236 14.638 136.127 14.2569C136.034 13.8607 135.878 13.5482 135.66 13.3196C135.457 13.091 135.192 12.9309 134.865 12.8395C134.538 12.7328 134.156 12.6795 133.72 12.6795C133.221 12.6795 132.707 12.7633 132.177 12.9309C131.647 13.0986 131.11 13.312 130.564 13.5711V23.2188C130.564 23.3407 130.517 23.4474 130.424 23.5388C130.33 23.6303 130.221 23.676 130.097 23.676H128.951C128.827 23.676 128.718 23.6303 128.624 23.5388C128.546 23.4474 128.507 23.3407 128.507 23.2188V11.5592C128.507 11.4373 128.546 11.3306 128.624 11.2392C128.718 11.1477 128.827 11.102 128.951 11.102H130.12C130.245 11.102 130.346 11.1477 130.424 11.2392C130.517 11.3306 130.564 11.4373 130.564 11.5592V11.9936C131.219 11.6431 131.826 11.384 132.387 11.2163C132.948 11.0334 133.579 10.942 134.281 10.942C135.699 10.942 136.727 11.3535 137.366 12.1765C138.021 12.9995 138.348 14.1731 138.348 15.6972V23.2188Z" fill="black"/>
<path d="M151.429 17.5262C151.429 17.8615 151.281 18.0291 150.985 18.0291H143.155V18.3492C143.155 19.7057 143.427 20.6659 143.973 21.2298C144.518 21.7937 145.328 22.0757 146.404 22.0757C147.089 22.0757 147.814 22.0528 148.578 22.0071C149.357 21.9614 150.019 21.9004 150.564 21.8242H150.681C150.775 21.8242 150.86 21.8471 150.938 21.8928C151.016 21.9385 151.055 22.0223 151.055 22.1443V22.9216C151.055 23.074 151.024 23.1959 150.962 23.2874C150.899 23.3636 150.775 23.4169 150.588 23.4474C149.918 23.5693 149.248 23.6608 148.578 23.7217C147.923 23.7979 147.198 23.836 146.404 23.836C145.734 23.836 145.079 23.7522 144.44 23.5846C143.801 23.4017 143.233 23.1045 142.734 22.6929C142.251 22.2662 141.853 21.7023 141.542 21.0012C141.246 20.3001 141.098 19.4161 141.098 18.3492V16.2916C141.098 14.6456 141.542 13.3425 142.43 12.3823C143.318 11.4221 144.604 10.942 146.287 10.942C147.144 10.942 147.892 11.0715 148.531 11.3306C149.17 11.5745 149.699 11.9326 150.12 12.4051C150.557 12.8624 150.884 13.4263 151.102 14.0969C151.32 14.7523 151.429 15.4839 151.429 16.2916V17.5262ZM149.349 16.2916C149.349 14.9961 149.092 14.074 148.578 13.5254C148.079 12.9767 147.315 12.7023 146.287 12.7023C145.274 12.7023 144.495 12.9919 143.949 13.5711C143.42 14.1502 143.155 15.0571 143.155 16.2916V16.4974H149.349V16.2916Z" fill="black"/>
<path d="M163.7 22.9216C163.7 23.074 163.668 23.1959 163.606 23.2874C163.559 23.3636 163.427 23.4169 163.209 23.4474C162.476 23.5846 161.752 23.6836 161.035 23.7446C160.334 23.8056 159.625 23.836 158.908 23.836C158.035 23.836 157.279 23.7065 156.64 23.4474C156.002 23.173 155.472 22.792 155.051 22.3043C154.63 21.8166 154.319 21.2222 154.116 20.5211C153.913 19.82 153.812 19.0427 153.812 18.1892V16.5431C153.812 14.7447 154.233 13.3653 155.074 12.4051C155.916 11.4297 157.194 10.942 158.908 10.942C159.266 10.942 159.695 10.9648 160.193 11.0106C160.708 11.041 161.191 11.0944 161.643 11.1706V6.91828C161.643 6.79635 161.682 6.69729 161.759 6.62108C161.853 6.52963 161.962 6.48391 162.087 6.48391H163.279C163.403 6.48391 163.505 6.52963 163.583 6.62108C163.661 6.69729 163.7 6.79635 163.7 6.91828V22.9216ZM161.643 12.8624C161.253 12.7862 160.793 12.7404 160.263 12.7252C159.734 12.7099 159.282 12.7023 158.908 12.7023C158.331 12.7023 157.848 12.7862 157.459 12.9538C157.069 13.1215 156.757 13.3729 156.524 13.7082C156.29 14.0283 156.118 14.4322 156.009 14.9199C155.916 15.3924 155.869 15.9335 155.869 16.5431V18.1892C155.869 19.4389 156.087 20.3991 156.524 21.0698C156.96 21.7404 157.755 22.0757 158.908 22.0757C159.313 22.0757 159.765 22.0604 160.263 22.03C160.778 21.9995 161.237 21.969 161.643 21.9385V12.8624Z" fill="black"/>
<path d="M12.5291 23.722L0 12.4112V0.983887L12.5291 12.2947V23.722Z" fill="black"/>
<path d="M25.0585 23.722L12.5294 12.4112V0.983887L25.0585 12.2947L37.3557 0.983887V12.4112L25.0585 23.722Z" fill="black"/>
<path d="M182.49 23.5969C187.444 23.5969 190.172 20.5818 190.172 15.5805C190.172 10.5793 187.444 7.56421 182.49 7.56421H176.7V23.5969H182.49ZM179.308 9.76571H182.49C185.888 9.76571 187.54 11.8715 187.54 15.5805C187.54 19.2896 185.888 21.3954 182.49 21.3954H179.308V9.76571Z" fill="url(#paint0_linear_154_25)"/>
<path d="M197.04 23.8362C200.342 23.8362 203.022 21.515 203.022 17.6145C203.022 13.714 200.342 11.3929 197.04 11.3929C193.761 11.3929 191.033 13.714 191.033 17.6145C191.033 21.515 193.761 23.8362 197.04 23.8362ZM197.04 21.6347C195.149 21.6347 193.689 20.2228 193.689 17.6145C193.689 15.0062 195.149 13.5944 197.04 13.5944C198.93 13.5944 200.414 15.0062 200.414 17.6145C200.414 20.2228 198.93 21.6347 197.04 21.6347Z" fill="url(#paint1_linear_154_25)"/>
<path d="M212.612 19.7682C212.324 20.8211 211.583 21.6347 209.812 21.6347C207.945 21.6347 206.534 20.2707 206.534 17.6145C206.534 14.9584 207.921 13.5944 209.812 13.5944C211.391 13.5944 212.301 14.408 212.54 15.413H215.076C214.598 13.044 212.803 11.3929 209.692 11.3929C206.581 11.3929 203.901 13.6183 203.901 17.6145C203.901 21.6107 206.581 23.8362 209.692 23.8362C212.827 23.8362 214.646 22.1372 215.148 19.7682H212.612Z" fill="url(#paint2_linear_154_25)"/>
<path d="M221.568 23.8362C224.487 23.8362 226.617 22.4722 226.617 20.0075C226.617 15.2455 218.983 17.2317 218.983 14.9105C218.983 14.0491 219.773 13.4508 221.305 13.4508C222.788 13.4508 223.578 14.0251 223.769 15.0302H226.258C225.899 12.6851 223.793 11.3929 221.329 11.3929C219.055 11.3929 216.543 12.4458 216.519 15.0062C216.519 19.7442 224.033 17.3034 224.033 20.175C224.033 21.2518 222.884 21.7782 221.568 21.7782C219.821 21.7782 218.888 21.1321 218.648 19.8639H216.112C216.447 22.4483 218.553 23.8362 221.568 23.8362Z" fill="url(#paint3_linear_154_25)"/>
<defs>
<linearGradient id="paint0_linear_154_25" x1="174.882" y1="9.78482" x2="209.171" y2="42.2576" gradientUnits="userSpaceOnUse">
<stop offset="0.09375" stop-color="#2F12DC"/>
<stop offset="1" stop-color="#1DDEF9"/>
</linearGradient>
<linearGradient id="paint1_linear_154_25" x1="174.882" y1="9.78482" x2="209.171" y2="42.2576" gradientUnits="userSpaceOnUse">
<stop offset="0.09375" stop-color="#2F12DC"/>
<stop offset="1" stop-color="#1DDEF9"/>
</linearGradient>
<linearGradient id="paint2_linear_154_25" x1="174.882" y1="9.78482" x2="209.171" y2="42.2576" gradientUnits="userSpaceOnUse">
<stop offset="0.09375" stop-color="#2F12DC"/>
<stop offset="1" stop-color="#1DDEF9"/>
</linearGradient>
<linearGradient id="paint3_linear_154_25" x1="174.882" y1="9.78482" x2="209.171" y2="42.2576" gradientUnits="userSpaceOnUse">
<stop offset="0.09375" stop-color="#2F12DC"/>
<stop offset="1" stop-color="#1DDEF9"/>
</linearGradient>
</defs>
</svg>
