<svg width="34" height="33" viewBox="0 0 34 33" fill="none" xmlns="http://www.w3.org/2000/svg">
<path fill-rule="evenodd" clip-rule="evenodd" d="M17.5001 0.409912C18.3285 0.409912 19.0001 1.08148 19.0001 1.90991V6.90991C19.0001 7.73834 18.3285 8.40991 17.5001 8.40991C16.6716 8.40991 16.0001 7.73834 16.0001 6.90991V1.90991C16.0001 1.08148 16.6716 0.409912 17.5001 0.409912ZM0.245606 18.21C-0.596765 14.7472 2.02601 11.4099 5.58975 11.4099H28.4103C31.9741 11.4099 34.5968 14.7472 33.7545 18.21L31.3218 28.21C30.7222 30.6749 28.5144 32.4099 25.9777 32.4099H8.02241C5.48561 32.4099 3.2779 30.6749 2.67827 28.21L0.245606 18.21ZM5.58975 14.4099C3.96987 14.4099 2.7777 15.9269 3.16059 17.5008L5.59325 27.5008C5.86581 28.6213 6.86932 29.4099 8.02241 29.4099H25.9777C27.1307 29.4099 28.1343 28.6213 28.4068 27.5008L30.8395 17.5008C31.2224 15.9269 30.0302 14.4099 28.4103 14.4099H5.58975ZM26.5 20.4099C27.3285 20.4099 28 19.7383 28 18.9099C28 18.0815 27.3285 17.4099 26.5 17.4099H22.5C21.6716 17.4099 21 18.0815 21 18.9099C21 19.7383 21.6716 20.4099 22.5 20.4099H26.5ZM24.5 26.4099C25.3285 26.4099 26 25.7383 26 24.9099C26 24.0815 25.3285 23.4099 24.5 23.4099H17.5C16.6716 23.4099 16 24.0815 16 24.9099C16 25.7383 16.6716 26.4099 17.5 26.4099H24.5ZM16.5 20.4099C17.3285 20.4099 18 19.7383 18 18.9099C18 18.0815 17.3285 17.4099 16.5 17.4099H8.50003C7.6716 17.4099 7.00003 18.0815 7.00003 18.9099C7.00003 19.7383 7.6716 20.4099 8.50003 20.4099H16.5ZM11.5 26.4099C12.3285 26.4099 13 25.7383 13 24.9099C13 24.0815 12.3285 23.4099 11.5 23.4099H9.50003C8.67161 23.4099 8.00003 24.0815 8.00003 24.9099C8.00003 25.7383 8.67161 26.4099 9.50003 26.4099H11.5Z" fill="url(#paint0_linear_259_100)"/>
<defs>
<linearGradient id="paint0_linear_259_100" x1="-1.14434" y1="4.77691" x2="38.6885" y2="17.7752" gradientUnits="userSpaceOnUse">
<stop offset="0.09375" stop-color="#2F12DC"/>
<stop offset="1" stop-color="#1DDEF9"/>
</linearGradient>
</defs>
</svg>
