<svg width="24" height="18" viewBox="0 0 24 18" fill="none" xmlns="http://www.w3.org/2000/svg">
<path fill-rule="evenodd" clip-rule="evenodd" d="M17.7123 17.9357C17.7123 17.9357 16.9726 17.0628 16.3562 16.2914C19.0479 15.5404 20.0753 13.8758 20.0753 13.8758C19.2329 14.4239 18.4315 14.8096 17.7123 15.0735C16.6849 15.4998 15.6986 15.7839 14.7329 15.9463C12.7603 16.3117 10.9521 16.2102 9.41096 15.926C8.23973 15.7027 7.23288 15.378 6.39041 15.0532C5.91781 14.8705 5.40411 14.6472 4.89041 14.363C4.85959 14.3427 4.82877 14.3275 4.79795 14.3122C4.76712 14.297 4.7363 14.2818 4.70548 14.2615C4.66438 14.2412 4.64384 14.2209 4.62329 14.2006C4.25342 13.9976 4.04795 13.8555 4.04795 13.8555C4.04795 13.8555 5.03425 15.4795 7.64383 16.2508C7.0274 17.0222 6.26712 17.9357 6.26712 17.9357C1.72603 17.7936 0 14.8502 0 14.8502C0 8.31377 2.9589 3.01564 2.9589 3.01564C5.91781 0.823304 8.73288 0.884202 8.73288 0.884202L8.93836 1.12779C5.23973 2.18336 3.53425 3.78701 3.53425 3.78701C3.53425 3.78701 3.9863 3.54342 4.74657 3.19833C6.9452 2.24426 8.69178 1.98037 9.41096 1.91947L9.45703 1.91178C9.56068 1.89434 9.65265 1.87887 9.76027 1.87887C11.0137 1.71648 12.4315 1.67588 13.911 1.83827C15.863 2.06157 17.9589 2.62995 20.0959 3.78701C20.0959 3.78701 18.4726 2.26456 14.9795 1.20899L15.2671 0.884202C15.2671 0.884202 18.0822 0.823304 21.0411 3.01564C21.0411 3.01564 24 8.31377 24 14.8502C24 14.8502 22.2534 17.7936 17.7123 17.9357ZM8.73654 8.82697C7.57454 8.82697 6.65717 9.87198 6.65717 11.1469C6.65717 12.4218 7.59492 13.4668 8.73654 13.4668C9.89854 13.4668 10.8159 12.4218 10.8159 11.1469C10.8363 9.87198 9.89854 8.82697 8.73654 8.82697ZM14.0995 11.1469C14.0995 9.87198 15.0169 8.82697 16.1789 8.82697C17.3409 8.82697 18.2583 9.87198 18.2583 11.1469C18.2583 12.4218 17.3409 13.4668 16.1789 13.4668C15.0373 13.4668 14.0995 12.4218 14.0995 11.1469Z" fill="#8D94B4"/>
</svg>
