<svg width="32" height="33" viewBox="0 0 32 33" fill="none" xmlns="http://www.w3.org/2000/svg">
<path fill-rule="evenodd" clip-rule="evenodd" d="M4.5 6.40991C5.32843 6.40991 6 5.73834 6 4.90991C6 4.08149 5.32843 3.40991 4.5 3.40991C3.67157 3.40991 3 4.08149 3 4.90991C3 5.73834 3.67157 6.40991 4.5 6.40991ZM4.5 9.40991C5.80927 9.40991 6.98794 8.85077 7.81026 7.95825L12.9741 10.1419C13.8878 10.5282 14.4854 11.4176 14.5001 12.4072L14.5 12.4445V19.3339C14.5 20.1914 14.0605 20.989 13.3357 21.4471L7.85518 24.9111C7.03117 23.9898 5.8333 23.4099 4.5 23.4099C2.01472 23.4099 0 25.4246 0 27.9099C0 30.3952 2.01472 32.4099 4.5 32.4099C6.98528 32.4099 9 30.3952 9 27.9099C9 27.8525 8.99893 27.7954 8.9968 27.7385L14.9385 23.9831C15.3324 23.7341 15.688 23.4396 16.0002 23.1087C16.3124 23.4396 16.668 23.7341 17.0619 23.9831L23.0032 27.7383C23.0011 27.7952 23 27.8524 23 27.9099C23 30.3952 25.0147 32.4099 27.5 32.4099C29.9853 32.4099 32 30.3952 32 27.9099C32 25.4246 29.9853 23.4099 27.5 23.4099C26.1668 23.4099 24.969 23.9897 24.145 24.9109L18.6647 21.4471C17.9398 20.989 17.5004 20.1913 17.5004 19.3339V12.4445L17.5003 12.4072C17.5149 11.4177 18.1126 10.5282 19.0263 10.1419L24.1898 7.95837C25.0122 8.85082 26.1908 9.40991 27.5 9.40991C29.9853 9.40991 32 7.39519 32 4.90991C32 2.42463 29.9853 0.409912 27.5 0.409912C25.0147 0.409912 23 2.42463 23 4.90991C23 5.0075 23.0031 5.10437 23.0092 5.20041L17.8579 7.37877C17.1415 7.68171 16.5134 8.12521 16.0002 8.66915C15.487 8.1252 14.8589 7.6817 14.1425 7.37876L8.99078 5.20026C8.9969 5.10426 9 5.00745 9 4.90991C9 2.42463 6.98528 0.409912 4.5 0.409912C2.01472 0.409912 0 2.42463 0 4.90991C0 7.39519 2.01472 9.40991 4.5 9.40991ZM29 27.9099C29 28.7383 28.3284 29.4099 27.5 29.4099C26.6716 29.4099 26 28.7383 26 27.9099C26 27.0815 26.6716 26.4099 27.5 26.4099C28.3284 26.4099 29 27.0815 29 27.9099ZM27.5 6.40991C28.3284 6.40991 29 5.73834 29 4.90991C29 4.08149 28.3284 3.40991 27.5 3.40991C26.6716 3.40991 26 4.08149 26 4.90991C26 5.73834 26.6716 6.40991 27.5 6.40991ZM6 27.9099C6 28.7383 5.32843 29.4099 4.5 29.4099C3.67157 29.4099 3 28.7383 3 27.9099C3 27.0815 3.67157 26.4099 4.5 26.4099C5.32843 26.4099 6 27.0815 6 27.9099Z" fill="url(#paint0_linear_234_13)"/>
<defs>
<linearGradient id="paint0_linear_234_13" x1="-1.16503" y1="4.77691" x2="36.9027" y2="16.5287" gradientUnits="userSpaceOnUse">
<stop offset="0.09375" stop-color="#2F12DC"/>
<stop offset="1" stop-color="#1DDEF9"/>
</linearGradient>
</defs>
</svg>
