<svg width="36" height="37" viewBox="0 0 36 37" fill="none" xmlns="http://www.w3.org/2000/svg">
<path fill-rule="evenodd" clip-rule="evenodd" d="M5 4.40991C5 4.9622 4.55228 5.40991 4 5.40991C3.44772 5.40991 3 4.9622 3 4.40991C3 3.85763 3.44772 3.40991 4 3.40991C4.55228 3.40991 5 3.85763 5 4.40991ZM8 4.40991C8 4.94726 7.89404 5.45987 7.70188 5.92797L14.2634 12.4895C15.3446 11.8057 16.6261 11.4099 18 11.4099C19.3739 11.4099 20.6554 11.8057 21.7366 12.4895L26.2981 7.92798C26.106 7.45987 26 6.94727 26 6.40991C26 4.20077 27.7909 2.40991 30 2.40991C32.2091 2.40991 34 4.20077 34 6.40991C34 8.61905 32.2091 10.4099 30 10.4099C29.4289 10.4099 28.8857 10.2902 28.3942 10.0745L23.8715 14.5972C24.5853 15.6942 25 17.0036 25 18.4099C25 19.7838 24.6042 21.0653 23.9204 22.1465L25.5294 23.7555L30.4819 28.708C30.95 28.5159 31.4626 28.4099 32 28.4099C34.2091 28.4099 36 30.2008 36 32.4099C36 34.619 34.2091 36.4099 32 36.4099C29.7909 36.4099 28 34.619 28 32.4099C28 31.8388 28.1197 31.2956 28.3354 30.8041L23.4081 25.8768L21.8127 24.2814C20.7157 24.9952 19.4063 25.4099 18 25.4099C15.6847 25.4099 13.6319 24.2858 12.3576 22.5536L7.9892 24.1137C7.99636 24.2115 8 24.3103 8 24.4099C8 26.6191 6.20914 28.4099 4 28.4099C1.79086 28.4099 0 26.6191 0 24.4099C0 22.2008 1.79086 20.4099 4 20.4099C5.01367 20.4099 5.93927 20.787 6.6442 21.4085L11.1387 19.8033C11.0477 19.353 11 18.887 11 18.4099C11 17.0036 11.4147 15.6942 12.1285 14.5972L5.6058 8.07454C5.1143 8.29021 4.57113 8.40991 4 8.40991C1.79086 8.40991 0 6.61905 0 4.40991C0 2.20077 1.79086 0.409912 4 0.409912C6.20914 0.409912 8 2.20077 8 4.40991ZM30 7.40991C30.5523 7.40991 31 6.9622 31 6.40991C31 5.85763 30.5523 5.40991 30 5.40991C29.4477 5.40991 29 5.85763 29 6.40991C29 6.9622 29.4477 7.40991 30 7.40991ZM18 22.4099C20.2091 22.4099 22 20.6191 22 18.4099C22 16.2008 20.2091 14.4099 18 14.4099C15.7909 14.4099 14 16.2008 14 18.4099C14 20.6191 15.7909 22.4099 18 22.4099ZM5 24.4099C5 24.9622 4.55228 25.4099 4 25.4099C3.44772 25.4099 3 24.9622 3 24.4099C3 23.8576 3.44772 23.4099 4 23.4099C4.55228 23.4099 5 23.8576 5 24.4099ZM32 33.4099C32.5523 33.4099 33 32.9622 33 32.4099C33 31.8576 32.5523 31.4099 32 31.4099C31.4477 31.4099 31 31.8576 31 32.4099C31 32.9622 31.4477 33.4099 32 33.4099Z" fill="url(#paint0_linear_234_49)"/>
<defs>
<linearGradient id="paint0_linear_234_49" x1="-1.31066" y1="5.32278" x2="41.5155" y2="18.5436" gradientUnits="userSpaceOnUse">
<stop offset="0.09375" stop-color="#2F12DC"/>
<stop offset="1" stop-color="#1DDEF9"/>
</linearGradient>
</defs>
</svg>
