<svg width="36" height="37" viewBox="0 0 36 37" fill="none" xmlns="http://www.w3.org/2000/svg">
<path fill-rule="evenodd" clip-rule="evenodd" d="M18 3.40991C9.71573 3.40991 3 10.1256 3 18.4099C3 26.6942 9.71573 33.4099 18 33.4099C26.2843 33.4099 33 26.6942 33 18.4099C33 10.1256 26.2843 3.40991 18 3.40991ZM0 18.4099C0 8.46879 8.05887 0.409912 18 0.409912C27.9411 0.409912 36 8.46879 36 18.4099C36 28.351 27.9411 36.4099 18 36.4099C8.05887 36.4099 0 28.351 0 18.4099ZM18.5923 6.53182L28.0923 10.6152C28.6431 10.8519 29 11.3938 29 11.9932V24.8266C29 25.426 28.6431 25.9679 28.0923 26.2047L18.5923 30.288C18.2142 30.4505 17.7858 30.4505 17.4077 30.288L7.90766 26.2047C7.35692 25.9679 7 25.426 7 24.8266V11.9932C7 11.3938 7.35692 10.8519 7.90766 10.6152L17.4077 6.53182C17.7858 6.36928 18.2142 6.36928 18.5923 6.53182ZM10 23.8386L18 27.2772L26 23.8386V12.9812L18 9.5426L10 12.9812V23.8386ZM18.5437 12.5119C18.194 12.3759 17.806 12.3759 17.4563 12.5119L12.9563 14.2619C12.3798 14.4861 12 15.0413 12 15.6599V21.1599C12 21.7785 12.3798 22.3337 12.9563 22.5579L17.4563 24.3079C17.806 24.4439 18.194 24.4439 18.5437 24.3079L23.0437 22.5579C23.6202 22.3337 24 21.7785 24 21.1599V15.6599C24 15.0413 23.6202 14.4861 23.0437 14.2619L18.5437 12.5119ZM18 21.3005L15 20.1338V16.686L18 15.5193L21 16.686V20.1338L18 21.3005Z" fill="url(#paint0_linear_234_136)"/>
<defs>
<linearGradient id="paint0_linear_234_136" x1="-1.31066" y1="5.32278" x2="41.5155" y2="18.5436" gradientUnits="userSpaceOnUse">
<stop offset="0.09375" stop-color="#2F12DC"/>
<stop offset="1" stop-color="#1DDEF9"/>
</linearGradient>
</defs>
</svg>
