<svg width="36" height="37" viewBox="0 0 36 37" fill="none" xmlns="http://www.w3.org/2000/svg">
<path fill-rule="evenodd" clip-rule="evenodd" d="M18 7.40991C19.1046 7.40991 20 6.51448 20 5.40991C20 4.30534 19.1046 3.40991 18 3.40991C16.8954 3.40991 16 4.30534 16 5.40991C16 6.51448 16.8954 7.40991 18 7.40991ZM18 10.4099C19.941 10.4099 21.6237 9.30392 22.4522 7.68776C23.7885 8.24804 25.0412 9.07243 26.1317 10.163C27.2614 11.2927 28.1055 12.5963 28.6663 13.9868C27.0806 14.8252 26 16.4914 26 18.4099C26 20.2969 27.0453 21.9397 28.5884 22.7909C28.0285 24.1108 27.2103 25.3479 26.1317 26.4264C25.0136 27.5446 23.725 28.3829 22.3504 28.9437C21.4908 27.4306 19.8646 26.4099 18 26.4099C16.1354 26.4099 14.5092 27.4306 13.6496 28.9437C12.275 28.3829 10.9864 27.5446 9.86827 26.4264C8.78973 25.3479 7.97151 24.1108 7.41165 22.7909C8.95474 21.9397 10 20.2969 10 18.4099C10 16.4914 8.91944 14.8252 7.33372 13.9868C7.89447 12.5963 8.73858 11.2927 9.86827 10.163C10.9588 9.07243 12.2114 8.24804 13.5478 7.68776C14.3763 9.30392 16.059 10.4099 18 10.4099ZM4.32845 13.4546C5.02728 11.4767 6.1678 9.62079 7.74695 8.04164C9.29836 6.49023 11.1169 5.36218 13.0558 4.66038C13.4175 2.25452 15.4933 0.409912 18 0.409912C20.5067 0.409912 22.5825 2.25452 22.9442 4.66038C24.8831 5.36218 26.7016 6.49023 28.253 8.04164C29.8322 9.62079 30.9727 11.4767 31.6716 13.4546C34.1154 13.7827 36 15.8762 36 18.4099C36 20.9738 34.0702 23.087 31.5838 23.3762C30.8789 25.2636 29.7678 27.033 28.253 28.5477C26.7097 30.0911 24.902 31.2154 22.9745 31.918C22.7199 34.4408 20.5899 36.4099 18 36.4099C15.4101 36.4099 13.2801 34.4408 13.0255 31.918C11.098 31.2154 9.29027 30.0911 7.74695 28.5477C6.23222 27.033 5.12106 25.2636 4.41618 23.3762C1.92983 23.087 0 20.9738 0 18.4099C0 15.8762 1.88458 13.7827 4.32845 13.4546ZM20 31.4099C20 32.5145 19.1046 33.4099 18 33.4099C16.8954 33.4099 16 32.5145 16 31.4099C16 30.3053 16.8954 29.4099 18 29.4099C19.1046 29.4099 20 30.3053 20 31.4099ZM31 20.4099C32.1046 20.4099 33 19.5145 33 18.4099C33 17.3053 32.1046 16.4099 31 16.4099C29.8954 16.4099 29 17.3053 29 18.4099C29 19.5145 29.8954 20.4099 31 20.4099ZM7 18.4099C7 19.5145 6.10457 20.4099 5 20.4099C3.89543 20.4099 3 19.5145 3 18.4099C3 17.3053 3.89543 16.4099 5 16.4099C6.10457 16.4099 7 17.3053 7 18.4099Z" fill="url(#paint0_linear_234_112)"/>
<defs>
<linearGradient id="paint0_linear_234_112" x1="-1.31066" y1="5.32278" x2="41.5155" y2="18.5436" gradientUnits="userSpaceOnUse">
<stop offset="0.09375" stop-color="#2F12DC"/>
<stop offset="1" stop-color="#1DDEF9"/>
</linearGradient>
</defs>
</svg>
