<svg width="28" height="28" viewBox="0 0 28 28" fill="none" xmlns="http://www.w3.org/2000/svg">
	<path fill-rule="evenodd" clip-rule="evenodd" d="M14.0001 0C6.26908 0 0 6.42637 0 14.3543C0 20.6965 4.01146 26.0773 9.57413 27.9753C10.2738 28.1082 10.5307 27.6639 10.5307 27.2848C10.5307 26.9425 10.5177 25.8117 10.5117 24.6123C6.61683 25.4806 5.79497 22.9186 5.79497 22.9186C5.15812 21.2594 4.24051 20.8183 4.24051 20.8183C2.97028 19.9273 4.33626 19.9456 4.33626 19.9456C5.74212 20.0467 6.48237 21.4249 6.48237 21.4249C7.73104 23.6194 9.75751 22.9849 10.5564 22.6182C10.6821 21.6906 11.0449 21.0569 11.4453 20.6987C8.33566 20.3357 5.06678 19.1049 5.06678 13.6046C5.06678 12.0374 5.61368 10.7569 6.50926 9.75163C6.3639 9.38984 5.88469 7.9301 6.64488 5.95286C6.64488 5.95286 7.82053 5.56706 10.4959 7.42426C11.6127 7.10621 12.8103 6.94671 14.0001 6.94124C15.1899 6.94671 16.3885 7.10621 17.5073 7.42426C20.1795 5.56706 21.3535 5.95286 21.3535 5.95286C22.1155 7.9301 21.6361 9.38984 21.4907 9.75163C22.3884 10.7569 22.9316 12.0374 22.9316 13.6046C22.9316 19.1179 19.6565 20.3319 16.539 20.6873C17.0411 21.1327 17.4886 22.0063 17.4886 23.3455C17.4886 25.266 17.4723 26.8118 17.4723 27.2848C17.4723 27.6668 17.7243 28.1144 18.434 27.9734C23.9936 26.0732 28 20.6944 28 14.3543C28 6.42637 21.7318 0 14.0001 0Z" fill="#8D94B4"/>
	<path fill-rule="evenodd" clip-rule="evenodd" d="M5.30268 20.6108C5.27184 20.6823 5.16241 20.7035 5.06273 20.6545C4.96118 20.6077 4.90415 20.5105 4.93707 20.4389C4.96721 20.3655 5.07687 20.3453 5.17818 20.394C5.27996 20.4411 5.33791 20.5392 5.30268 20.6108Z" fill="#8D94B4"/>
	<path fill-rule="evenodd" clip-rule="evenodd" d="M5.87004 21.2579C5.80327 21.3214 5.67274 21.2919 5.58418 21.1916C5.49261 21.0915 5.47545 20.9577 5.54315 20.8932C5.612 20.8298 5.73859 20.8595 5.83039 20.9596C5.92197 21.0608 5.93982 21.1937 5.87004 21.2579Z" fill="#8D94B4"/>
	<path fill-rule="evenodd" clip-rule="evenodd" d="M6.42177 22.0857C6.33599 22.1468 6.19573 22.0895 6.10903 21.9619C6.02325 21.8342 6.02325 21.6812 6.11088 21.6198C6.19782 21.5585 6.33599 21.6137 6.42386 21.7404C6.50941 21.8699 6.50941 22.0232 6.42177 22.0857Z" fill="#8D94B4"/>
	<path fill-rule="evenodd" clip-rule="evenodd" d="M7.17761 22.8834C7.10087 22.9702 6.93742 22.9469 6.8178 22.8285C6.69539 22.7128 6.66131 22.5485 6.73828 22.4617C6.81594 22.3747 6.98031 22.3992 7.10087 22.5167C7.22235 22.6322 7.25944 22.7976 7.17761 22.8834Z" fill="#8D94B4"/>
	<path fill-rule="evenodd" clip-rule="evenodd" d="M8.22039 23.3479C8.18654 23.4604 8.02912 23.5115 7.87055 23.4637C7.7122 23.4145 7.60857 23.2828 7.64057 23.1692C7.67349 23.056 7.8316 23.0028 7.99133 23.0539C8.14945 23.1029 8.25331 23.2336 8.22039 23.3479Z" fill="#8D94B4"/>
	<path fill-rule="evenodd" clip-rule="evenodd" d="M9.36529 23.4341C9.36923 23.5525 9.23476 23.6507 9.0683 23.6526C8.90092 23.6566 8.76553 23.5608 8.76367 23.4443C8.76367 23.3248 8.89512 23.2275 9.06251 23.2247C9.22897 23.2214 9.36529 23.3164 9.36529 23.4341Z" fill="#8D94B4"/>
	<path fill-rule="evenodd" clip-rule="evenodd" d="M10.4328 23.2466C10.4528 23.3622 10.3371 23.4808 10.1718 23.5122C10.0093 23.5428 9.85882 23.4715 9.83819 23.3569C9.81802 23.2386 9.93579 23.12 10.0981 23.0893C10.2636 23.0598 10.4117 23.1292 10.4328 23.2466Z" fill="#8D94B4"/>
</svg>