<svg width="36" height="37" viewBox="0 0 36 37" fill="none" xmlns="http://www.w3.org/2000/svg">
<path fill-rule="evenodd" clip-rule="evenodd" d="M31.5 6.40991C32.3284 6.40991 33 5.73834 33 4.90991C33 4.08149 32.3284 3.40991 31.5 3.40991C30.6716 3.40991 30 4.08149 30 4.90991C30 5.73834 30.6716 6.40991 31.5 6.40991ZM31.5 9.40991C33.9853 9.40991 36 7.39519 36 4.90991C36 2.42463 33.9853 0.409912 31.5 0.409912C29.0147 0.409912 27 2.42463 27 4.90991C27 5.60463 27.1574 6.26258 27.4386 6.85004L22.4499 11.8387L18 10L13.5501 11.8387L8.56144 6.85004C8.84257 6.26258 9 5.60463 9 4.90991C9 2.42463 6.98528 0.409912 4.5 0.409912C2.01472 0.409912 0 2.42463 0 4.90991C0 7.39519 2.01472 9.40991 4.5 9.40991C5.19472 9.40991 5.85267 9.25248 6.44012 8.97136L10.5479 13.0792L10 13.3056V23.6944L10.4204 23.8682L6.44012 27.8485C5.85267 27.5673 5.19472 27.4099 4.5 27.4099C2.01472 27.4099 0 29.4246 0 31.9099C0 34.3952 2.01472 36.4099 4.5 36.4099C6.98528 36.4099 9 34.3952 9 31.9099C9 31.2152 8.84257 30.5572 8.56144 29.9698L13.4226 25.1086L18 27L22.5774 25.1087L27.4386 29.9698C27.1574 30.5573 27 31.2152 27 31.9099C27 34.3952 29.0147 36.4099 31.5 36.4099C33.9853 36.4099 36 34.3952 36 31.9099C36 29.4246 33.9853 27.4099 31.5 27.4099C30.8053 27.4099 30.1473 27.5673 29.5599 27.8485L25.5795 23.8682L26 23.6944V13.3056L25.4521 13.0792L29.5599 8.97136C30.1473 9.25248 30.8053 9.40991 31.5 9.40991ZM18 13.246L13 15.312V21.688L18 23.754L23 21.688V15.312L18 13.246ZM33 31.9099C33 32.7383 32.3284 33.4099 31.5 33.4099C30.6716 33.4099 30 32.7383 30 31.9099C30 31.0815 30.6716 30.4099 31.5 30.4099C32.3284 30.4099 33 31.0815 33 31.9099ZM4.5 33.4099C5.32843 33.4099 6 32.7383 6 31.9099C6 31.0815 5.32843 30.4099 4.5 30.4099C3.67157 30.4099 3 31.0815 3 31.9099C3 32.7383 3.67157 33.4099 4.5 33.4099ZM6 4.90991C6 5.73834 5.32843 6.40991 4.5 6.40991C3.67157 6.40991 3 5.73834 3 4.90991C3 4.08149 3.67157 3.40991 4.5 3.40991C5.32843 3.40991 6 4.08149 6 4.90991Z" fill="url(#paint0_linear_259_68)"/>
<defs>
<linearGradient id="paint0_linear_259_68" x1="-1.31066" y1="5.32278" x2="41.5155" y2="18.5436" gradientUnits="userSpaceOnUse">
<stop offset="0.09375" stop-color="#2F12DC"/>
<stop offset="1" stop-color="#1DDEF9"/>
</linearGradient>
</defs>
</svg>
